<?xml version="1.0" encoding="UTF-8" standalone="no"?>
<!-- Created with Inkscape (http://www.inkscape.org/) -->

<svg
   xmlns:dc="http://purl.org/dc/elements/1.1/"
   xmlns:cc="http://creativecommons.org/ns#"
   xmlns:rdf="http://www.w3.org/1999/02/22-rdf-syntax-ns#"
   xmlns:svg="http://www.w3.org/2000/svg"
   xmlns="http://www.w3.org/2000/svg"
   xmlns:sodipodi="http://sodipodi.sourceforge.net/DTD/sodipodi-0.dtd"
   xmlns:inkscape="http://www.inkscape.org/namespaces/inkscape"
   id="svg2"
   version="1.1"
   inkscape:version="0.48.4 r9939"
   width="96.537114"
   height="33.655329"
   xml:space="preserve"
   sodipodi:docname="sElect-Logo.pdf"><metadata
     id="metadata8"><rdf:RDF><cc:Work
         rdf:about=""><dc:format>image/svg+xml</dc:format><dc:type
           rdf:resource="http://purl.org/dc/dcmitype/StillImage" /><dc:title></dc:title></cc:Work></rdf:RDF></metadata><defs
     id="defs6" /><sodipodi:namedview
     pagecolor="#ffffff"
     bordercolor="#666666"
     borderopacity="1"
     objecttolerance="10"
     gridtolerance="10"
     guidetolerance="10"
     inkscape:pageopacity="0"
     inkscape:pageshadow="2"
     inkscape:window-width="640"
     inkscape:window-height="480"
     id="namedview4"
     showgrid="false"
     inkscape:zoom="3.2008414"
     inkscape:cx="48.268559"
     inkscape:cy="16.827665"
     inkscape:window-x="739"
     inkscape:window-y="94"
     inkscape:window-maximized="0"
     inkscape:current-layer="g10" /><g
     id="g10"
     inkscape:groupmode="layer"
     inkscape:label="sElect-Logo"
     transform="matrix(1.25,0,0,-1.25,0,33.655329)"><g
       id="g12"><path
         d="m 60.426,17.174 c -0.856,0 -1.551,-0.695 -1.551,-1.551 0,-0.851 0.695,-1.523 1.551,-1.523 0.332,0 0.648,0.098 0.898,0.273 -0.043,0.122 -0.066,0.254 -0.097,0.375 -0.211,-0.187 -0.497,-0.3 -0.801,-0.3 -0.656,0 -1.176,0.523 -1.176,1.175 0,0.657 0.52,1.2 1.176,1.2 0.304,0 0.59,-0.11 0.801,-0.297 0.031,0.121 0.054,0.254 0.097,0.375 -0.25,0.176 -0.566,0.273 -0.898,0.273 z"
         style="fill:#000000;fill-opacity:1;fill-rule:nonzero;stroke:none"
         id="path14" /><path
         d="m 60.426,19.823 c -2.313,0 -4.199,-1.887 -4.199,-4.2 0,-2.312 1.886,-4.175 4.199,-4.175 0.926,0 1.781,0.32 2.472,0.828 -0.257,0.207 -0.488,0.437 -0.699,0.672 -0.504,-0.332 -1.121,-0.524 -1.773,-0.524 -1.774,0 -3.199,1.43 -3.199,3.199 0,1.774 1.425,3.227 3.199,3.227 0.652,0 1.269,-0.187 1.773,-0.527 0.211,0.238 0.438,0.468 0.699,0.675 -0.691,0.512 -1.546,0.825 -2.472,0.825 z"
         style="fill:#000000;fill-opacity:1;fill-rule:nonzero;stroke:none"
         id="path16" /><path
         d="m 60.426,22.448 c -3.77,0 -6.824,-3.055 -6.824,-6.825 0,-3.765 3.054,-6.8 6.824,-6.8 1.976,0 3.754,0.84 5,2.175 -0.574,0.176 -1.117,0.383 -1.602,0.653 -0.91,-0.781 -2.101,-1.25 -3.398,-1.25 -2.887,0 -5.227,2.336 -5.227,5.222 0,2.887 2.34,5.25 5.227,5.25 1.293,0 2.488,-0.464 3.398,-1.25 0.477,0.266 1.012,0.477 1.574,0.653 -1.246,1.332 -3.007,2.172 -4.972,2.172 z"
         style="fill:#000000;fill-opacity:1;fill-rule:nonzero;stroke:none"
         id="path18" /><g
         id="g20"
         transform="matrix(1,0,0,-1,0,26.924263)"><path
           d="M 58.688,26.91 C 58.746,25.273 57.73,23.691 57.309,23 56.52,21.695 55.203,20.355 54.258,19.117 54.047,18.84 53.93,18.027 54.34,17.59 c 0.414,-0.434 1.055,-0.418 1.445,-0.192 1.082,0.633 1.461,1.129 2.219,2.164 0.258,0.352 0.773,1.391 0.777,2.192 l 0,-9.07 c 0,-0.813 0.762,-1.383 1.551,-1.332 0.789,0.046 1.438,0.734 1.441,1.359 l 0.059,6.738 c -0.027,-1.59 0.137,-2.562 0.871,-2.566 0.731,0 1.039,1.066 1.07,2.621 -0.031,-1.617 0.207,-2.078 0.973,-2.09 0.77,-0.012 0.981,1.039 0.996,3.09 0,-1.617 0.387,-2.313 0.75,-2.328 0.36,-0.02 1.262,0.711 1.266,2.363 l 0.008,2.324 c 0.004,0.711 -1.032,1.254 -1.039,1.965 l -0.016,2.086"
           style="fill:#ffffff;fill-opacity:1;fill-rule:nonzero;stroke:#b3b3b3;stroke-opacity:1;stroke-width:0.832129;stroke-linecap:butt;stroke-linejoin:round;stroke-miterlimit:4;stroke-dasharray:none"
           id="path22" /></g><text
         transform="matrix(1,0,0,-1,25.06875,9.905449)"
         id="text24"><tspan
           style="fill:#000000;fill-opacity:1;fill-rule:nonzero;stroke:none;font-family:DejaVu Sans Mono;font-variant:normal;font-weight:bold;font-size:22.4;writing-mode:lr;-inkscape-font-specification:DejaVuSansMono-Bold"
           x="0 13.4848"
           y="0"
           sodipodi:role="line"
           id="tspan26">le</tspan><tspan
           style="fill:#000000;fill-opacity:1;fill-rule:nonzero;stroke:none;font-family:DejaVu Sans Mono;font-variant:normal;font-weight:bold;font-size:22.4;writing-mode:lr;-inkscape-font-specification:DejaVuSansMono-Bold"
           x="40.4249888"
           y="0.31718848"
           id="tspan28">t</tspan></text>
<path
         d="m 13.891,23.432 0.879,0 c 0.585,0 1.054,-0.473 1.054,-1.059 l 0,-0.882 c 0,-0.586 -0.469,-1.059 -1.054,-1.059 l -0.879,0 c -0.586,0 -1.055,0.473 -1.055,1.059 l 0,0.882 c 0,0.586 0.469,1.059 1.055,1.059 z"
         style="fill:#008000;fill-opacity:1;fill-rule:nonzero;stroke:none"
         id="path30" /><path
         d="m 13.891,16.444 0.879,0 c 0.585,0 1.054,-0.469 1.054,-1.059 l 0,-0.879 c 0,-0.586 -0.469,-1.058 -1.054,-1.058 l -0.879,0 c -0.586,0 -1.055,0.472 -1.055,1.058 l 0,0.879 c 0,0.59 0.469,1.059 1.055,1.059 z"
         style="fill:#008000;fill-opacity:1;fill-rule:nonzero;stroke:none"
         id="path32" /><path
         d="m 13.891,12.952 0.879,0 c 0.585,0 1.054,-0.473 1.054,-1.059 l 0,-0.883 c 0,-0.586 -0.469,-1.058 -1.054,-1.058 l -0.879,0 c -0.586,0 -1.055,0.472 -1.055,1.058 l 0,0.883 c 0,0.586 0.469,1.059 1.055,1.059 z"
         style="fill:#008000;fill-opacity:1;fill-rule:nonzero;stroke:none"
         id="path34" /><path
         d="m 17.375,12.952 0.879,0 c 0.586,0 1.055,-0.473 1.055,-1.059 l 0,-0.883 c 0,-0.586 -0.469,-1.058 -1.055,-1.058 l -0.879,0 c -0.586,0 -1.055,0.472 -1.055,1.058 l 0,0.883 c 0,0.586 0.469,1.059 1.055,1.059 z"
         style="fill:#008000;fill-opacity:1;fill-rule:nonzero;stroke:none"
         id="path36" /><path
         d="m 20.859,12.952 0.879,0 c 0.582,0 1.055,-0.473 1.055,-1.059 l 0,-0.883 c 0,-0.586 -0.473,-1.058 -1.055,-1.058 l -0.879,0 c -0.586,0 -1.058,0.472 -1.058,1.058 l 0,0.883 c 0,0.586 0.472,1.059 1.058,1.059 z"
         style="fill:#008000;fill-opacity:1;fill-rule:nonzero;stroke:none"
         id="path38" /><path
         d="m 13.891,19.94 0.879,0 c 0.585,0 1.054,-0.473 1.054,-1.059 l 0,-0.883 c 0,-0.585 -0.469,-1.058 -1.054,-1.058 l -0.879,0 c -0.586,0 -1.055,0.473 -1.055,1.058 l 0,0.883 c 0,0.586 0.469,1.059 1.055,1.059 z"
         style="fill:#008000;fill-opacity:1;fill-rule:nonzero;stroke:none"
         id="path40" /><path
         d="m 17.375,19.94 0.879,0 c 0.586,0 1.055,-0.473 1.055,-1.059 l 0,-0.883 c 0,-0.585 -0.469,-1.058 -1.055,-1.058 l -0.879,0 c -0.586,0 -1.055,0.473 -1.055,1.058 l 0,0.883 c 0,0.586 0.469,1.059 1.055,1.059 z"
         style="fill:#008000;fill-opacity:1;fill-rule:nonzero;stroke:none"
         id="path42" /><path
         d="m 20.859,19.94 0.879,0 c 0.582,0 1.055,-0.473 1.055,-1.059 l 0,-0.883 c 0,-0.585 -0.473,-1.058 -1.055,-1.058 l -0.879,0 c -0.586,0 -1.058,0.473 -1.058,1.058 l 0,0.883 c 0,0.586 0.472,1.059 1.058,1.059 z"
         style="fill:#008000;fill-opacity:1;fill-rule:nonzero;stroke:none"
         id="path44" /><path
         d="m 17.375,26.924 0.879,0 c 0.586,0 1.055,-0.472 1.055,-1.058 l 0,-0.883 c 0,-0.586 -0.469,-1.059 -1.055,-1.059 l -0.879,0 c -0.586,0 -1.055,0.473 -1.055,1.059 l 0,0.883 c 0,0.586 0.469,1.058 1.055,1.058 z"
         style="fill:#008000;fill-opacity:1;fill-rule:nonzero;stroke:none"
         id="path46" /><path
         d="m 13.891,26.924 0.879,0 c 0.585,0 1.054,-0.472 1.054,-1.058 l 0,-0.883 c 0,-0.586 -0.469,-1.059 -1.054,-1.059 l -0.879,0 c -0.586,0 -1.055,0.473 -1.055,1.059 l 0,0.883 c 0,0.586 0.469,1.058 1.055,1.058 z"
         style="fill:#008000;fill-opacity:1;fill-rule:nonzero;stroke:none"
         id="path48" /><path
         d="m 20.859,26.924 0.879,0 c 0.582,0 1.055,-0.472 1.055,-1.058 l 0,-0.883 c 0,-0.586 -0.473,-1.059 -1.055,-1.059 l -0.879,0 c -0.586,0 -1.058,0.473 -1.058,1.059 l 0,0.883 c 0,0.586 0.472,1.058 1.058,1.058 z"
         style="fill:#008000;fill-opacity:1;fill-rule:nonzero;stroke:none"
         id="path50" /><text
         transform="matrix(1,0,0,-1,-1.88125,9.905449)"
         id="text52"><tspan
           style="fill:#000000;fill-opacity:1;fill-rule:nonzero;stroke:none;font-family:DejaVu Sans Mono;font-variant:normal;font-weight:bold;font-size:22.4;writing-mode:lr;-inkscape-font-specification:DejaVuSansMono-Bold"
           x="0"
           y="0"
           id="tspan54">s</tspan></text>
<text
         transform="matrix(1,0,0,-1,-0.507226,2.04163)"
         id="text56"><tspan
           style="fill:#000000;fill-opacity:1;fill-rule:nonzero;stroke:none;font-family:DejaVu Sans Mono;font-variant:normal;font-weight:bold;font-size:6.039531;writing-mode:lr;-inkscape-font-specification:DejaVuSansMono-Bold"
           x="0 3.63579766 7.27159532 10.90739299 14.54319065 18.17898831 21.79666738 25.43246504 29.0682627 32.70406037 36.33985803 39.97565569 43.59333476 47.22913242 50.86493008"
           y="0"
           sodipodi:role="line"
           id="tspan58">secure election</tspan></text>
</g></g></svg>